<svg width="303px" height="148px" viewBox="0 0 303 148" version="1.1" xmlns="http://www.w3.org/2000/svg" xmlns:xlink="http://www.w3.org/1999/xlink">
    <g id="Page-1" stroke="none" stroke-width="1" fill="none" fill-rule="evenodd">
        <path d="M56.0374982,129 L56.0374982,110.625 L74.4124982,110.625 L74.4124982,55.5 L56.0374982,55.5 L56.0374982,37.125 L19.2874982,37.125 L19.2874982,0.375 L0.912498218,0.375 L0.912498218,129 L56.0374982,129 Z M55.4862482,110.625 L19.2874982,110.625 L19.2874982,55.5 L55.4862482,55.5 L55.4862482,110.625 Z M113.612499,129 L113.612499,0.375 L95.2374991,0.375 L95.2374991,129 L113.612499,129 Z M189.5625,129 L189.5625,110.625 L207.9375,110.625 L207.9375,55.5 L189.5625,55.5 L189.5625,37.125 L152.8125,37.125 L152.8125,55.5 L134.4375,55.5 L134.4375,110.625 L152.8125,110.625 L152.8125,129 L189.5625,129 Z M189.5625,110.07375 L152.8125,110.07375 L152.8125,56.05125 L189.5625,56.05125 L189.5625,110.07375 Z M283.887501,147.375 L283.887501,129 L302.262501,129 L302.262501,37.125 L247.137501,37.125 L247.137501,55.5 L228.762501,55.5 L228.762501,92.25 L247.137501,92.25 L247.137501,110.625 L283.336251,110.625 L283.336251,129 L247.137501,129 L247.137501,147.375 L283.887501,147.375 Z M283.887501,92.25 L247.688751,92.25 L247.688751,55.5 L283.887501,55.5 L283.887501,92.25 Z" id="blog" fill="#3A3A3C" fill-rule="nonzero"></path>
    </g>
</svg>